<?xml version="1.0" encoding="UTF-8" standalone="no"?>
<svg
   xmlns:dc="http://purl.org/dc/elements/1.1/"
   xmlns:cc="http://creativecommons.org/ns#"
   xmlns:rdf="http://www.w3.org/1999/02/22-rdf-syntax-ns#"
   xmlns:svg="http://www.w3.org/2000/svg"
   xmlns="http://www.w3.org/2000/svg"
   viewBox="0 0 160 53.333332"
   height="53.333332"
   width="160"
   xml:space="preserve"
   id="svg2"
   version="1.1"><metadata
     id="metadata8"><rdf:RDF><cc:Work
         rdf:about=""><dc:format>image/svg+xml</dc:format><dc:type
           rdf:resource="http://purl.org/dc/dcmitype/StillImage" /></cc:Work></rdf:RDF></metadata><defs
     id="defs6" /><g
     transform="matrix(1.3333333,0,0,-1.3333333,0,53.333333)"
     id="g10"><g
       transform="scale(0.1)"
       id="g12"><path
         id="path14"
         style="fill:#28292a;fill-opacity:1;fill-rule:nonzero;stroke:none"
         d="m 531.801,221.395 c 6.32,2.902 13.219,4.363 20.679,4.363 9.731,0 18.969,-2.102 27.731,-6.301 8.75,-4.187 16.371,-9.352 22.855,-15.48 l 43.789,45.011 c -12,11.289 -26.667,19.758 -44.023,25.41 -17.363,5.653 -35.113,8.469 -53.269,8.469 -11.68,0 -23.442,-1.527 -35.27,-4.601 -11.844,-3.063 -22.621,-7.817 -32.352,-14.278 -9.73,-6.449 -17.679,-14.758 -23.839,-24.922 -6.161,-10.171 -9.25,-22.507 -9.25,-37.031 0,-11.293 2.109,-20.98 6.328,-29.039 4.218,-8.062 9.648,-14.851 16.3,-20.332 6.641,-5.484 14.188,-9.844 22.622,-13.062 8.425,-3.235 16.859,-5.813 25.289,-7.747 16.55,-3.875 28.711,-7.585 36.488,-11.14 7.781,-3.547 11.68,-9.027 11.68,-16.445 0,-7.7544 -3.168,-13.1567 -9.489,-16.2231 -6.316,-3.0586 -12.726,-4.6016 -19.218,-4.6016 -11.668,0 -22.7,2.5899 -33.082,7.7539 -10.379,5.1563 -19.129,11.6058 -26.266,19.3598 L 434.75,63.6055 c 12.652,-12.2578 28.465,-21.5352 47.434,-27.8242 18.968,-6.3008 38.347,-9.4415 58.129,-9.4415 12.328,0 24.648,1.4415 36.976,4.3516 12.32,2.9024 23.434,7.5899 33.324,14.0352 9.883,6.4648 17.922,14.9297 24.075,25.4101 6.164,10.4883 9.25,23.3203 9.25,38.4763 0,11.621 -2.278,21.621 -6.821,30.008 -4.539,8.399 -10.535,15.5 -17.996,21.313 -7.461,5.796 -15.808,10.488 -25.051,14.031 -9.242,3.555 -18.41,6.289 -27.488,8.223 -15.562,3.542 -26.832,6.777 -33.812,9.675 -6.969,2.91 -10.461,7.754 -10.461,14.532 0,7.089 3.171,12.101 9.492,15" /><path
         id="path16"
         style="fill:#28292a;fill-opacity:1;fill-rule:nonzero;stroke:none"
         d="m 179.949,221.762 c -23.992,0 -43.441,19.351 -43.441,43.218 0,23.864 19.449,43.215 43.441,43.215 23.992,0 43.442,-19.351 43.442,-43.215 0,-23.867 -19.45,-43.218 -43.442,-43.218 m 0,135.82 C 80.5703,357.582 0,277.422 0,178.547 0,84.1602 73.4063,6.84766 166.508,0 c 1.601,0.0664063 3.14,0.117188 4.609,0.117188 6.488,0 12.903,1.531252 19.219,4.609372 6.324,3.05469 9.492,8.46484 9.492,16.20314 0,7.4219 -3.898,12.9101 -11.68,16.4648 -7.777,3.543 -19.941,7.2539 -36.488,11.1289 -8.433,1.9375 -16.859,4.5235 -25.293,7.7461 -8.437,3.2227 -15.976,7.5782 -22.617,13.0664 -6.6523,5.4883 -12.0898,12.2657 -16.2969,20.3204 -4.2265,8.0781 -6.3359,17.7537 -6.3359,29.0427 0,14.524 3.0937,26.875 9.2539,37.031 6.1562,10.168 14.1059,18.469 23.8279,24.934 9.731,6.445 20.52,11.211 32.36,14.277 11.832,3.055 23.593,4.59 35.273,4.59 18.156,0 35.906,-2.82 53.266,-8.468 17.351,-5.641 32.019,-14.11 44.023,-25.411 l -43.785,-45.007 c -6.488,6.125 -14.106,11.289 -22.863,15.488 -8.75,4.187 -18.004,6.289 -27.731,6.289 -7.453,0 -14.351,-1.445 -20.676,-4.356 -6.316,-2.902 -9.488,-7.902 -9.488,-15 0,-6.789 3.492,-11.621 10.461,-14.519 6.977,-2.902 18.25,-6.137 33.809,-9.6915 9.082,-1.9297 18.254,-4.6758 27.492,-8.2188 9.242,-3.5586 17.59,-8.2344 25.047,-14.0429 7.461,-5.8008 13.461,-12.9024 18.004,-21.2891 4.285,-7.9219 6.547,-17.2852 6.785,-28.0703 50.324,31.7422 83.722,87.6486 83.722,151.3126 0,98.875 -80.566,179.035 -179.949,179.035" /><path
         id="path18"
         style="fill:#28292a;fill-opacity:1;fill-rule:nonzero;stroke:none"
         d="m 808.855,34.082 h 80.762 V 400 H 808.855 V 34.082" /><path
         id="path20"
         style="fill:#28292a;fill-opacity:1;fill-rule:nonzero;stroke:none"
         d="m 1102.71,166.223 93.4,108.894 h -96.81 l -77.36,-97.762 h -1.46 V 400 H 940.215 V 34.082 h 80.265 v 115.676 h 1.46 l 79.3,-115.676 H 1200 l -97.29,132.141" /><path
         id="path22"
         style="fill:#28292a;fill-opacity:1;fill-rule:nonzero;stroke:none"
         d="m 677.988,34.082 h 79.785 V 275.121 H 677.988 V 34.082" /><path
         id="path24"
         style="fill:#28292a;fill-opacity:1;fill-rule:nonzero;stroke:none"
         d="m 750.234,383.055 c -4.05,3.875 -8.918,6.945 -14.589,9.207 -5.672,2.254 -11.602,3.379 -17.754,3.379 -6.496,0 -12.493,-1.211 -18.008,-3.633 -5.508,-2.418 -10.379,-5.559 -14.602,-9.43 -4.207,-3.875 -7.449,-8.469 -9.715,-13.797 -2.285,-5.324 -3.41,-10.89 -3.41,-16.699 0,-11.945 4.375,-22.184 13.125,-30.734 8.762,-8.551 19.629,-12.828 32.61,-12.828 6.152,0 12.082,1.128 17.754,3.39 5.671,2.262 10.539,5.317 14.589,9.199 4.051,3.871 7.305,8.473 9.739,13.789 2.422,5.321 3.64,11.051 3.64,17.184 0,6.125 -1.218,11.859 -3.64,17.188 -2.434,5.32 -5.688,9.921 -9.739,13.785" /></g></g></svg>